<svg width="99" height="116" viewBox="0 0 99 116" fill="none" xmlns="http://www.w3.org/2000/svg">
<path fill-rule="evenodd" clip-rule="evenodd" d="M33.9861 1.78596C33.3482 0.690225 31.9597 0.292482 30.8384 0.884279C29.6491 1.51195 29.2218 3.00363 29.8984 4.16578L32.3734 8.417C23.4905 13.0773 17.2308 22.0595 16.3882 32.5697H82.6119C81.7851 22.2563 75.7422 13.4142 67.1229 8.6833L69.753 4.16575C70.4295 3.00361 70.0023 1.51195 68.813 0.884288C67.6917 0.292487 66.3032 0.69023 65.6652 1.78597L62.7846 6.734C59.6355 5.61137 56.2436 5.00008 52.7089 5.00008H46.2912C42.9585 5.00008 39.7527 5.54351 36.7577 6.5466L33.9861 1.78596ZM82.7089 35.076H16.2912V41.9684C16.2912 37.4698 12.6443 33.8229 8.14563 33.8229C3.64696 33.8229 6.10352e-05 37.4698 6.10352e-05 41.9684V73.2975C6.10352e-05 77.7962 3.64696 81.4431 8.14563 81.4431C12.6443 81.4431 16.2912 77.7962 16.2912 73.2975V66.4811C16.2912 76.5327 21.2346 85.4297 28.8228 90.8736V107.133C28.8228 111.632 32.4697 115.279 36.9684 115.279C41.4671 115.279 45.114 111.632 45.114 107.133V96.4584C45.5045 96.4735 45.897 96.4811 46.2912 96.4811H52.633V107.133C52.633 111.632 56.2799 115.279 60.7785 115.279C65.2772 115.279 68.9241 111.632 68.9241 107.133V91.7256C77.2167 86.388 82.7089 77.0759 82.7089 66.4811V73.2975C82.7089 77.7962 86.3558 81.4431 90.8545 81.4431C95.3532 81.4431 99.0001 77.7962 99.0001 73.2975V41.9684C99.0001 37.4698 95.3532 33.8229 90.8545 33.8229C86.3558 33.8229 82.7089 37.4698 82.7089 41.9684V35.076ZM35.0887 22.5444C36.4729 22.5444 37.595 21.4223 37.595 20.0381C37.595 18.6538 36.4729 17.5317 35.0887 17.5317C33.7045 17.5317 32.5823 18.6538 32.5823 20.0381C32.5823 21.4223 33.7045 22.5444 35.0887 22.5444ZM63.9115 22.5444C65.2957 22.5444 66.4178 21.4223 66.4178 20.0381C66.4178 18.6539 65.2957 17.5318 63.9115 17.5318C62.5273 17.5318 61.4051 18.6539 61.4051 20.0381C61.4051 21.4223 62.5273 22.5444 63.9115 22.5444Z" fill="white"/>
</svg>
