<svg width="94" height="116" viewBox="0 0 94 116" fill="none" xmlns="http://www.w3.org/2000/svg">
<path fill-rule="evenodd" clip-rule="evenodd" d="M69.8779 0C70.6147 6.85444 67.9394 13.7314 63.9765 18.6771C60.013 23.6155 53.5109 27.4634 47.1442 26.9548C46.2719 20.2399 49.4909 13.238 53.1604 8.86699C57.2594 3.92127 64.1691 0.236116 69.8779 0ZM90.923 39.6289C89.8716 40.274 78.3751 47.3279 78.503 61.6544C78.6609 78.9675 93.4271 84.8816 93.9853 85.1052C93.9928 85.1082 93.9977 85.1101 94 85.1111C93.9954 85.1256 93.9882 85.1492 93.9784 85.1817C93.7048 86.0792 91.3762 93.719 86.0114 101.604C81.195 108.663 76.2039 115.7 68.339 115.853C64.5613 115.921 62.0352 114.823 59.4099 113.681C56.6606 112.485 53.8025 111.242 49.2842 111.242C44.5528 111.242 41.5625 112.521 38.6806 113.754C36.1827 114.823 33.7661 115.856 30.3677 115.992C22.772 116.284 16.9951 108.356 12.1423 101.319C2.23297 86.9233 -5.3482 60.6386 4.83035 42.9036C9.87961 34.0909 18.9086 28.5153 28.7161 28.3692C32.9413 28.2863 37.0354 29.9167 40.6189 31.3438C43.3542 32.4331 45.792 33.404 47.7636 33.404C49.5326 33.404 51.9053 32.4648 54.6723 31.3694C59.0293 29.6447 64.3642 27.5329 69.8596 28.0915C73.6283 28.2523 84.1925 29.6188 90.9806 39.5933C90.9677 39.6015 90.9484 39.6133 90.923 39.6289Z" fill="white"/>
</svg>
